<?xml version="1.0" standalone="no"?>
<!DOCTYPE svg PUBLIC "-//W3C//DTD SVG 20010904//EN"
 "http://www.w3.org/TR/2001/REC-SVG-20010904/DTD/svg10.dtd">
<svg version="1.0" xmlns="http://www.w3.org/2000/svg"
 width="260.000000pt" height="260.000000pt" viewBox="0 0 260.000000 260.000000"
 preserveAspectRatio="xMidYMid meet">
<metadata>
Created by potrace 1.11, written by Peter Selinger 2001-2013
</metadata>
<g transform="translate(0.000000,260.000000) scale(0.100000,-0.100000)"
fill="#000000" stroke="none">
<path d="M1819 2586 c-48 -17 -144 -91 -251 -194 -61 -57 -93 -82 -105 -78
-10 2 -28 7 -40 11 -88 25 -201 42 -273 40 -94 -3 -146 -11 -235 -37 -196 -57
-343 -159 -406 -280 -24 -44 -28 -108 -19 -285 3 -47 0 -67 -13 -80 -29 -33
-44 -83 -37 -122 l7 -37 -64 -24 c-76 -29 -127 -69 -142 -110 l-10 -31 82 -40
c45 -22 99 -42 119 -46 21 -3 38 -7 38 -8 0 -2 -16 -36 -35 -76 -43 -93 -71
-195 -61 -232 15 -59 79 -51 241 31 129 64 166 74 315 87 36 3 74 7 85 9 11 2
36 6 55 10 19 3 46 9 60 12 14 3 39 8 55 11 17 2 82 23 145 45 63 21 120 40
127 42 7 1 16 5 19 9 4 4 14 7 23 7 9 0 28 6 43 14 29 16 36 12 54 -34 16 -41
8 -135 -21 -235 -8 -27 -15 -54 -16 -60 -3 -22 -38 -81 -58 -99 -28 -25 -92
-29 -173 -9 -128 30 -168 33 -233 18 -98 -23 -127 -47 -199 -172 -20 -34 -36
-70 -36 -81 0 -18 5 -20 58 -15 36 3 87 -1 137 -12 130 -28 152 -30 264 -21
41 3 82 1 91 -4 14 -8 70 -108 70 -125 0 -13 -123 8 -171 28 -42 18 -63 22
-94 16 -56 -10 -208 -72 -206 -84 1 -5 25 -19 52 -29 56 -21 71 -42 45 -61
-11 -8 -13 -15 -7 -20 21 -12 11 -33 -16 -33 -30 0 -45 -4 -82 -19 -22 -9 -19
-11 35 -28 62 -20 64 -21 103 -29 13 -3 38 -10 55 -15 17 -5 78 -19 136 -30
58 -11 123 -23 145 -27 43 -9 53 -10 134 -20 30 -3 71 -12 91 -19 80 -28 175
25 185 104 2 14 8 46 14 71 5 24 6 49 2 55 -5 5 -11 35 -14 66 -9 89 -41 143
-154 258 -57 57 -106 114 -109 127 -10 41 4 69 94 191 92 124 128 179 152 228
8 17 15 32 16 33 1 2 29 -23 61 -56 64 -65 113 -86 140 -59 13 13 10 24 -29
93 -23 44 -59 115 -78 159 -34 78 -35 82 -25 145 11 65 12 207 2 267 -9 52
-27 114 -54 188 -126 349 -130 403 -41 545 50 81 58 120 29 149 -24 24 -24 24
-72 7z"/>
</g>
</svg>
